<svg version="1" xmlns="http://www.w3.org/2000/svg" width="400" height="400" viewBox="0 0 300.000000 300.000000"><path d="M138.5 24.3C129 27.5 122.7 33 118.6 42c-2.4 5.1-2.7 5.4-5.8 5.2-4.7-.4-16.2 1.5-20.6 3.5-5.7 2.6-11.9 8-14.7 12.7-2.1 3.6-3.5 4.7-8.4 6.5-7.5 2.7-13.4 7-17.4 12.7-2.3 3.2-5.2 5.6-10 8.1-6.4 3.4-12.7 9.2-14.9 13.8-.5 1.1-2.9 2.9-5.4 3.9-6.3 2.6-14.8 10.7-17.9 17-11.4 23.2 7.3 59.3 45.6 88.3 12 9.1 28.6 16.5 43.9 19.7 4.7.9 7.9 2.1 8.5 3.2 5 8.5 9.6 14.2 14.1 17.6 5.1 3.8 5.4 4.3 5.4 8.5 0 3.3.6 5 2.5 6.8 1.3 1.4 3.1 2.5 4 2.5.9 0 2.8.9 4.1 1.9 2.6 2 6.2 1.8 7.1-.5.3-.8 1.8-1.4 3.4-1.4 1.9 0 3.4-.8 4.5-2.5 2.1-3.2 4.3-3.2 6.9 0 1.1 1.4 3.1 2.7 4.5 2.8 1.3.1 3.3 1 4.2 1.9 2.3 2.3 4.3 2.3 6.6 0 .9-.9 2.8-1.8 4-1.9 1.3-.1 3-.7 3.7-1.3 2-1.6 3.8-7.7 3.2-10.6-.3-2 .4-3.1 4.4-6 5.8-4.2 10.8-10.9 14.9-19.6l3-6.5 7.3-1.3c35.2-6.2 78.9-39 88.4-66.3 2.6-7.6 2.4-20.7-.5-27-2.8-6.3-11.1-14.4-19-18.8-5.4-2.9-6.6-4.1-8.6-8.6-3-6.5-9.3-12.6-16.6-16-4.3-2-6.5-3.9-8.8-7.5-3.7-5.5-11.3-10.9-18.9-13.3-3.9-1.3-5.4-2.3-6.3-4.5-1.9-4.5-8.9-11.1-14.9-13.8-3.2-1.5-9-3-13.8-3.6l-8.2-1-2-4.7c-2.7-6.6-9.1-13.2-15.4-16-6.4-2.8-20-3.6-26.2-1.6zm11.7 4.4c1.5 1.5 2.8 2.9 2.8 3.3 0 .3-1.8.6-4 .7-5.2.2-10.9 3.5-14 8-1.8 2.6-2.4 5-2.6 9.4 0 3.2-.7 6.5-1.4 7.3-2.2 2.7-1.6 8.1 1.3 11.5 2.8 3.4 4.7 10.3 2.9 10.9-3.2 1-10.3 6.8-12.7 10.3-2.6 3.6-3 3.8-3.9 2.2-.6-1-1-9.5-1.1-20.3 0-17 .2-19.1 2.4-25.5 3-8.8 10-16.2 17.6-18.7 7.1-2.4 9.5-2.2 12.7.9zm7.3 9.4c4 2.4 6.5 6.8 6.5 11.7 0 3.6-.3 4-3 4.5-4 .9-7 4.1-7 7.7 0 2.8-.2 3-4 3-2.7 0-4-.4-3.8-1.3.1-.6-.1-2.4-.5-3.9-.8-3-5.9-6.3-8.3-5.4-2 .8-2.9-3.8-1.5-8.3 1.3-4.5 4.7-7.8 9.8-9.6 4.2-1.5 7.4-1.1 11.8 1.6zm-43.2 17.1c-1.1 7.6-.8 24.8.7 35.3.7 4.9 1.2 9.4 1.2 10-.1.5-.4 4-.8 7.6-.8 7.8 1 14.4 5.6 20.7 1.6 2.3 5.1 10.7 7.9 19 5.1 14.9 6.4 23.2 3.8 23.2-2.4 0-16.2-10.4-24.3-18.5-9.5-9.3-17.5-21.1-24.9-36.8-6.1-12.8-9.5-23.2-9.5-28.8 0-8.3 4.7-22.4 8.2-24.5.9-.6.9-.3-.1.9-2.2 2.7-1.7 11.1.9 14.6 8 11.4 26 6 26-7.8 0-5.3-3-10.5-7.3-12.8-3.8-1.9-11.1-2-13.4-.1-1.4 1.1-1.6 1.1-.9-.1 2-3.2 13.7-6.8 22.9-7l4.8-.1-.8 5.2zm81-2c1.8 2.2 1.8 2.2-1.6 5.2-2 1.7-4 4.1-4.6 5.3-1.6 3.1-1.4 9.9.4 13.3 1.8 3.4 7.3 7 10.9 7 2.4 0 2.6.3 2.6 4.2 0 12.6-7.8 40.6-15.5 55.8-3.9 7.7-10.6 17.5-16.1 23.8-5.5 6.2-6 6-7-4.1-.6-5.9-.3-7.6 2.6-15.9 2.4-6.7 4.5-10.6 7.6-14.1 8.7-9.8 11.5-21.2 8.1-32.8-.8-2.7-1-5.7-.6-7.9 2.4-11.3 3.1-32.3 1.3-40.9-.5-2.3-.4-2.4 4.8-1.8 3.8.5 5.8 1.3 7.1 2.9zM86 58.4c0 .2-.8 1-1.7 1.7-1.6 1.3-1.7 1.2-.4-.4 1.3-1.6 2.1-2.1 2.1-1.3zm16.6 4c2.8 2.8 3.4 4.2 3.4 7.6 0 3.4-.6 4.8-3.4 7.6-2.7 2.7-4.2 3.4-7.3 3.4-6.9 0-11.2-4.3-11.3-11.2 0-3.9.5-5.2 3.1-7.7 2.5-2.6 3.9-3.1 7.6-3.1 3.8 0 5 .5 7.9 3.4zm105-1.8c2.9 1.9 5.4 6.3 5.4 9.4 0 3.4-2.8 7.8-6 9.5-4.9 2.5-8.8 1.9-12.6-1.9-2.9-2.9-3.4-4.1-3.4-7.9 0-3.7.5-5.1 3.1-7.6 3.6-3.6 9.3-4.2 13.5-1.5zM155 72.5V77h-10v-9h10v4.5zm-82.3.9c-.3.7-.9 3.4-1.2 6-.7 4.6-.7 4.6-4.7 4.6C58.2 84 52 89.9 52 97.9c0 10.3 8.9 16.7 19.1 13.9 2.6-.8 2.7-.5 5.9 8.4 3.8 10.9 11.4 26.4 17.8 36.2 2.5 3.9 9.5 12 15.5 18 5.9 5.9 10.7 11 10.5 11.1-.9.9-16.4-6.8-24.4-12.1-16-10.5-33.7-30.9-43.5-50.1-4-7.7-4.2-8.8-4.3-17-.1-10.8 1.5-16.5 6.2-22.8 4.9-6.4 19.7-14.8 17.9-10.1zm154.1 1.4c1.3 2 1.3 2.2-.6 2.2-1.8 0-3.2-1.8-3.2-4.2 0-1.5 2.2-.4 3.8 2zm6.7 7.4c7.1 5.6 6.3 14.7-1.6 18.6-4.9 2.5-9.2 1.9-8.3-1.1.4-1.1.7-6 .7-10.9V80h3.2c1.8 0 4.5 1 6 2.2zM71.7 96.9c1.4 10.4 1 11.6-3.7 12.6-6.4 1.4-13-4.7-13-12 0-3 .7-4.4 3.6-7.2 3.1-2.9 4.2-3.4 7.7-3.1l4.1.3 1.3 9.4zm-26.1-1.8c-.3 1.7-.6 5.3-.6 8 0 4.8-.1 4.9-3.1 4.9-4.2 0-10.2 3.5-12.3 7.1-2.3 3.8-2.3 11 0 14.8 2 3.5 8.1 7.1 11.8 7.1 1.5 0 4.3-.7 6.3-1.5s3.7-1.4 3.8-1.3c.2.2 1.6 3.1 3.3 6.4 8.6 17.2 26.6 39.4 39.7 49 5.6 4.2 6.2 4.9 5.2 6.6-1.5 2.5-4.8 1.9-14.4-2.6-18.9-9-37.6-25.9-51.6-46.5-5.9-8.9-7.7-14.2-7.9-23.6-.1-8.5 1.3-13.8 5.1-19.6C33.6 100 43.1 92.1 45.4 92c.5 0 .6 1.4.2 3.1zm101.3-.5l3.1 2.6 3.1-2.6c4.3-3.7 8.3-3.4 12.5.8 3 3 3.4 4 3.4 8.6s-.4 5.6-3.4 8.6c-4.2 4.2-8.2 4.5-12.5.8l-3.1-2.6-3.1 2.6c-4.3 3.7-8.3 3.4-12.5-.8-3-3-3.4-4-3.4-8.6s.4-5.6 3.4-8.6c4.2-4.2 8.2-4.5 12.5-.8zm105.8 2.2c1 3.5.9 4.2-.3 4.2-.8 0-1.4-.3-1.4-.8 0-.4-.4-2.4-.9-4.5-1.3-5.3 1-4.4 2.6 1.1zm5.1 9.2c3.8 2.4 6.5 7.9 5.6 11.6-1.5 5.7-10 10.8-14.4 8.4-1.7-.9-1.7-1.4-.4-6.7.7-3.2 1.6-7.9 1.9-10.6.7-5.4 2-5.9 7.3-2.7zm-29.4 4.6c-3.3 14.3-11.6 32.6-21.5 47.4-6.1 9.1-18.5 22.7-24.1 26.4-2.2 1.4-3.1 1.5-4.9.6-2.1-1.2-2-1.4 4.9-7.6 16.2-14.7 29.9-37.3 37.4-61.9 3.1-10.3 3.1-10.3 6.3-10.2l3.1.1-1.2 5.2zm-205.5 4.1c-.5 2.1-.9 6.1-.9 8.9 0 5.1 0 5.1-3.5 5.7-10 1.6-15.6 13.1-10.5 21.5 4.2 6.8 13 9.2 19.5 5.2l3.3-2 4.6 7.4C48.9 183 68.8 202 88.9 212.3l7.6 3.9-5-.7c-17.4-2.3-36.4-10.3-52-22-8.6-6.5-27.5-25.9-30.9-31.8-7.5-12.7-7.2-29.5.7-39.9C12.2 117.9 21 111 23 111c.4 0 .4 1.7-.1 3.7zm24.3 4.3c1.1 4.1 2.2 8.5 2.5 9.7.4 1.7-.2 2.5-2.5 3.7-1.7.9-4.1 1.6-5.4 1.6-3 0-8.4-3.3-9.8-6.1-1.5-2.8-1.5-8 0-10.8 1.6-3.2 7-6.2 10.4-5.9 2.7.3 3 .8 4.8 7.8zm103.8 4c0 3.8-.4 7-.9 7-1.3 0-6.1-7.7-6.1-9.8 0-1.1 1-2.4 2.3-3 4.3-2.1 4.7-1.6 4.7 5.8zm128.6-3.8c4.8 3.3 7 7.3 5.8 11-.4 1.5-.8 1.5-3.2.2-1.5-.8-4.1-1.4-5.8-1.4h-3.1v-6.5c0-3.6.4-6.5.8-6.5s2.8 1.5 5.5 3.2zm-30.3 13.1c-.3 4.1-8.5 20.7-15.6 31.5-8.5 12.9-18.7 24.1-29 32l-2.9 2.1-2.2-2.6-2.3-2.6 7.3-5.9c14.6-11.8 32.8-36.3 39.7-53.6 1.3-3.1 2.2-4.2 3.5-4 1.2.3 1.6 1.2 1.5 3.1zM26 141c1.6 4.7 3 9 3 9.5 0 1.6-5.5 4.5-8.5 4.5-6 0-11.5-5.5-11.5-11.5 0-5.8 6.4-11.8 11.8-11.3 1.9.3 2.8 1.7 5.2 8.8zm254.9-7.6c5.5 2.9 8 10.2 5.1 15.5-1.4 2.8-6.8 6.1-9.8 6.1-3 0-7.8-2.5-8.6-4.6-.7-1.8 4.2-16.5 5.8-17.6 1.7-1.2 4.4-.9 7.5.6zm-146 14.6c0 3.6-.3 5.8-.6 5-.4-.8-1.6-4.5-2.9-8.3l-2.3-6.8 3 1.8c2.8 1.6 2.9 2.1 2.8 8.3zm136.9 9.3l3.2 1.3-3.2 5c-1.7 2.7-8.6 10.3-15.3 16.9-12 12.1-24.6 21.5-35.6 26.8-6.4 3.1-15.9 6.8-15.9 6.3 0-.2 3.3-2.2 7.3-4.4 17.6-9.8 38.9-31.6 49.9-51 2.8-4.8 3.2-5.2 4.7-3.8.9.8 3.1 2.1 4.9 2.9zM128 261.5c0 1.5-1.5 3.5-2.6 3.5-.9 0-1.4-1.1-1.4-3 0-2.8.2-3 2-2 1.1.6 2 1.2 2 1.5zm48.6 1.9c-.9 3.6-3.6 3.4-3.6-.3 0-3 1.8-4.5 3.4-3 .5.4.6 1.9.2 3.3zm-7.1-1.3c.3.4.3 2-.1 3.4-.5 2-1.2 2.5-3.9 2.5-3.3 0-4.5-1.3-4.5-5 0-2.6 7-3.4 8.5-.9zm-30.7 2.1c-.3 3-.6 3.3-4 3.6-3.7.3-3.8.3-3.8-3.2s.1-3.6 4.1-3.6c3.9 0 4 .1 3.7 3.2zm7.2-1.2c0 1.3-.7 2-2 2s-2-.7-2-2 .7-2 2-2 2 .7 2 2zm12 .5c0 3-2.5 3.4-3.3.6-.5-2.2 0-3.1 2-3.1.7 0 1.3 1.1 1.3 2.5z"/><path d="M144.2 100.7c-2.2.9-3.4 4.1-2.2 6.3 1.1 2.1 6.4 2.8 7.5 1 .4-.6 1.5-.4 2.9.5 1.9 1.3 2.5 1.3 4.4-.1 2.7-1.9 2.8-4.5.3-6.8-2-1.8-6.1-1.4-6.1.5 0 .6-1 .3-2.2-.5-2.4-1.7-2.6-1.7-4.6-.9z"/></svg>